<?xml version="1.0" encoding="UTF-8"?>
<svg width="10px" height="26px" viewBox="0 0 10 26" version="1.1" xmlns="http://www.w3.org/2000/svg" xmlns:xlink="http://www.w3.org/1999/xlink">
    <!-- Generator: Sketch 48.2 (47327) - http://www.bohemiancoding.com/sketch -->
    <title>Icon</title>
    <desc>Created with Sketch.</desc>
    <defs></defs>
    <g id="Lock-Screen" stroke="none" stroke-width="1" fill="none" fill-rule="evenodd" transform="translate(-66.000000, -724.000000)">
        <g id="Flash-Light" transform="translate(46.000000, 712.000000)" fill="#FFFFFF">
            <path d="M23,23.8752256 C23,22.8396274 23.8953408,22 25,22 C26.1046592,22 27,22.8396274 27,23.8752256 L27,26.1249188 C27,27.160517 26.1046592,28 25,28 C23.8953408,28 23,27.160517 23,26.1249188 L23,23.8752256 Z M20,16.2846323 L20,15 L30,15 L30,16.2846323 C30,16.2846323 29.7074286,17.2285957 29.0311429,18.3651416 C28.4917143,19.2721886 27.9885714,19.8523225 27.7814286,20.0753645 L27.6928571,20.2266794 L27.6928571,36.439969 C27.6928571,37.3015373 26.982,38 26.1052857,38 L23.8948571,38 C23.018,38 22.3072857,37.3015373 22.3072857,36.439969 L22.3072857,20.2498398 L22.1874286,20.0439224 C21.9632857,19.7982814 21.4835714,19.2319034 20.9707143,18.369914 C20.2947143,17.2332278 20.002,16.2892644 20.002,16.2892644 L20.0382857,16.3504641 L20,16.2846323 Z M30,12.5 C30,12.5021955 29.9991429,12.5042001 29.999,12.5063001 L30,12.5063001 L30,12.9964681 L29.3047143,12.9964681 C29.2868571,12.9972318 29.2698571,13 29.2517143,13 L20.7482857,13 C20.7301429,13 20.7131429,12.9972318 20.6952857,12.9964681 L20,12.9964681 L20,12.5063001 L20.001,12.5063001 C20.001,12.5042001 20,12.5021955 20,12.5 C20,12.223845 20.3351429,12 20.7482857,12 L29.2517143,12 C29.665,12 30,12.223845 30,12.5 Z M24.8345312,26.9860493 C25.3791013,27.0774592 25.894631,26.7100521 25.9860451,26.1655068 C26.0774591,25.6208353 25.7101615,25.1053291 25.1654652,25.0139192 C24.6208951,24.9226356 24.1053654,25.2899164 24.0139513,25.8345879 C23.9225373,26.3791332 24.2899611,26.8946394 24.8345312,26.9860493 Z" id="Icon"></path>
        </g>
    </g>
</svg>