<?xml version="1.0" encoding="UTF-8"?>
<svg width="20px" height="20px" viewBox="0 0 20 20" version="1.1" xmlns="http://www.w3.org/2000/svg" xmlns:xlink="http://www.w3.org/1999/xlink">
    <!-- Generator: Sketch 48.2 (47327) - http://www.bohemiancoding.com/sketch -->
    <title>Icon</title>
    <desc>Created with Sketch.</desc>
    <defs></defs>
    <g id="Extensions-/-Widgets-/-Up-Next" stroke="none" stroke-width="1" fill="none" fill-rule="evenodd" transform="translate(-10.000000, -10.000000)">
        <g id="Calendar">
            <g id="Topline">
                <g id="Icon" transform="translate(10.000000, 10.000000)">
                    <g id="Graphics-/-App-Icons-/-Calendar">
                        <g id="Calendar-Icon" stroke-width="1" fill="#FFFFFF">
                            <path d="M13.0271667,0 C15.035,0 16.0386667,0 17.1195,0.341666667 C18.2995,0.771166667 19.2288333,1.7005 19.6583333,2.8805 C20,3.96116667 20,4.96516667 20,6.97283333 L20,13.0271667 C20,15.035 20,16.0386667 19.6583333,17.1195 C19.2288333,18.2995 18.2995,19.2288333 17.1195,19.6581667 C16.0386667,20 15.035,20 13.0271667,20 L6.97283333,20 C4.965,20 3.96116667,20 2.8805,19.6581667 C1.7005,19.2288333 0.771166667,18.2995 0.341666667,17.1195 C0,16.0386667 0,15.035 0,13.0271667 L0,6.97283333 C0,4.96516667 0,3.96116667 0.341666667,2.8805 C0.771166667,1.7005 1.7005,0.771166667 2.8805,0.341666667 C3.96116667,0 4.965,0 6.97283333,0 L13.0271667,0 Z" id="Background"></path>
                        </g>
                        <path d="M6.15755208,16.6666667 L7.01692708,16.6666667 L7.01692708,7.27213542 L6.14453125,7.27213542 C5.86458333,7.44140625 3.87239583,8.84765625 3.61197917,9.01041667 L3.61197917,9.9609375 C3.88541667,9.79166667 5.92317708,8.359375 6.13151042,8.22916667 L6.15755208,8.22916667 L6.15755208,16.6666667 Z M12.9990625,16.6666667 L12.9990625,14.5442708 L8.23343754,14.5442708 L8.23343754,13.7304688 C9.25557295,12.0117188 10.4860417,10.1692708 12.5628646,7.25911458 L13.864948,7.25911458 L13.864948,13.7565104 L15.2646875,13.7565104 L15.2646875,14.5442708 L13.864948,14.5442708 L13.864948,16.6666667 L12.9990625,16.6666667 Z M9.13187504,13.7304688 L9.13187504,13.7565104 L12.9990625,13.7565104 L12.9990625,8.04036458 L12.9860417,8.04036458 C11.2542709,10.4361979 10.069375,12.2070312 9.13187504,13.7304688 Z" id="14" fill="#000000"></path>
                        <path d="M5.87532552,5.33333333 L5.87532552,2.74983724 L5.50113932,2.74983724 L4.61669922,4.88753255 L4.58805339,4.88753255 L3.70361328,2.74983724 L3.32942708,2.74983724 L3.32942708,5.33333333 L3.63020833,5.33333333 L3.63020833,3.36035156 L3.65169271,3.36035156 L4.46630859,5.31542969 L4.73844401,5.31542969 L5.5530599,3.36035156 L5.57454427,3.36035156 L5.57454427,5.33333333 L5.87532552,5.33333333 Z M7.31125651,5.36735026 C6.76161458,5.36735026 6.42144531,4.98779297 6.42144531,4.36832682 C6.42144531,3.74707031 6.76161458,3.36930339 7.31125651,3.36930339 C7.86089844,3.36930339 8.20106771,3.74707031 8.20106771,4.36832682 C8.20106771,4.98779297 7.86089844,5.36735026 7.31125651,5.36735026 Z M7.31125651,5.08984375 C7.67649089,5.08984375 7.88238281,4.82486979 7.88238281,4.36832682 C7.88238281,3.90999349 7.67649089,3.6468099 7.31125651,3.6468099 C6.94602214,3.6468099 6.74013021,3.90999349 6.74013021,4.36832682 C6.74013021,4.82486979 6.94602214,5.08984375 7.31125651,5.08984375 Z M8.70779948,5.33333333 L9.01574219,5.33333333 L9.01574219,4.19108073 C9.01574219,3.85270182 9.21447266,3.6468099 9.52241536,3.6468099 C9.83035807,3.6468099 9.97716797,3.81152344 9.97716797,4.15885417 L9.97716797,5.33333333 L10.2851107,5.33333333 L10.2851107,4.08365885 C10.2851107,3.62532552 10.0434115,3.36930339 9.61014323,3.36930339 C9.31473307,3.36930339 9.12674479,3.49462891 9.0300651,3.70768229 L9.00141927,3.70768229 L9.00141927,3.40332031 L8.70779948,3.40332031 L8.70779948,5.33333333 Z M11.584974,5.36735026 C11.0908333,5.36735026 10.7739388,4.97526042 10.7739388,4.36832682 C10.7739388,3.76318359 11.0944141,3.36930339 11.584974,3.36930339 C11.8535286,3.36930339 12.0809049,3.49641927 12.1901172,3.70768229 L12.2169727,3.70768229 L12.2169727,2.63704427 L12.5249154,2.63704427 L12.5249154,5.33333333 L12.2312956,5.33333333 L12.2312956,5.02539062 L12.2026497,5.02539062 C12.0809049,5.24023438 11.8517383,5.36735026 11.584974,5.36735026 Z M11.6565885,3.6468099 C11.3056771,3.6468099 11.0926237,3.91894531 11.0926237,4.36832682 C11.0926237,4.8194987 11.3038867,5.08984375 11.6565885,5.08984375 C12.0075,5.08984375 12.2241341,4.8141276 12.2241341,4.36832682 C12.2241341,3.92610677 12.0057096,3.6468099 11.6565885,3.6468099 Z M13.7406315,5.09700521 C14.057526,5.09700521 14.2920638,4.88932292 14.2920638,4.61360677 L14.2920638,4.43636068 L13.7728581,4.4703776 C13.4792383,4.49007161 13.350332,4.5921224 13.350332,4.78548177 C13.350332,4.98242188 13.5168359,5.09700521 13.7406315,5.09700521 Z M13.6833398,5.36735026 C13.3091536,5.36735026 13.0316471,5.14534505 13.0316471,4.79264323 C13.0316471,4.44710286 13.2858789,4.2483724 13.7352604,4.22151693 L14.2920638,4.1875 L14.2920638,4.01204427 C14.2920638,3.77392578 14.1434635,3.64322917 13.8552148,3.64322917 C13.6242578,3.64322917 13.463125,3.73095703 13.4201563,3.88313802 L13.1086328,3.88313802 C13.1498112,3.57340495 13.4541732,3.36930339 13.865957,3.36930339 C14.3368229,3.36930339 14.6000065,3.6110026 14.6000065,4.01204427 L14.6000065,5.33333333 L14.3063867,5.33333333 L14.3063867,5.04866536 L14.2777409,5.04866536 C14.1524154,5.25455729 13.9411523,5.36735026 13.6833398,5.36735026 Z M15.2857747,6.03157552 C15.6277344,6.03157552 15.7817057,5.89908854 15.9464193,5.4514974 L16.7001628,3.40332031 L16.372526,3.40332031 L15.8443685,4.9913737 L15.8157227,4.9913737 L15.2857747,3.40332031 L14.9527669,3.40332031 L15.6671224,5.3351237 L15.6313151,5.44970703 C15.5507487,5.68245443 15.454069,5.76660156 15.2768229,5.76660156 C15.2338542,5.76660156 15.1855143,5.7648112 15.1479167,5.75764974 L15.1479167,6.02083333 C15.1908854,6.02799479 15.2445964,6.03157552 15.2857747,6.03157552 Z" id="Monday" fill="#E34E42"></path>
                    </g>
                </g>
            </g>
        </g>
    </g>
</svg>