<svg id="Layer_1" data-name="Layer 1" xmlns="http://www.w3.org/2000/svg" width="64" height="64" viewBox="0 0 64 64"><defs><style>.cls-1{fill:#666;}</style></defs><title>chats</title><path class="cls-1" d="M46,27c0-9.37-9.42-17-21-17S4,17.63,4,27A15.25,15.25,0,0,0,9.1,38.12L8,44.84A1,1,0,0,0,9,46a1,1,0,0,0,.5-0.13l6.28-3.59A25.21,25.21,0,0,0,25,44C36.58,44,46,36.37,46,27ZM15.21,40.3l-4.89,2.79,0.84-5.19A1,1,0,0,0,10.83,37,13.36,13.36,0,0,1,6,27c0-8.27,8.52-15,19-15s19,6.73,19,15S35.48,42,25,42a23.32,23.32,0,0,1-8.91-1.75A1,1,0,0,0,15.21,40.3Z"/><path class="cls-1" d="M48.11,19.7a1,1,0,0,0-.73,1.87C53.93,24.12,58,29.27,58,35a13.34,13.34,0,0,1-4.82,10,1,1,0,0,0-.35.93l0.84,5.19L48.78,48.3a1,1,0,0,0-.88,0A23.23,23.23,0,0,1,39,50a22,22,0,0,1-12.64-3.83,1,1,0,0,0-1.15,1.63A24,24,0,0,0,39,52a25.21,25.21,0,0,0,9.22-1.72l6.28,3.59A1,1,0,0,0,55,54a1,1,0,0,0,1-1.16L54.9,46.12A15.25,15.25,0,0,0,60,35C60,28.42,55.44,22.56,48.11,19.7Z"/></svg>