<?xml version="1.0" encoding="UTF-8"?>
<svg width="58px" height="58px" viewBox="0 0 58 58" version="1.1" xmlns="http://www.w3.org/2000/svg" xmlns:xlink="http://www.w3.org/1999/xlink">
    <!-- Generator: Sketch 48.2 (47327) - http://www.bohemiancoding.com/sketch -->
    <title>Icon</title>
    <desc>Created with Sketch.</desc>
    <defs></defs>
    <g id="Extensions-/-Widgets-/-Weather" stroke="none" stroke-width="1" fill="none" fill-rule="evenodd" transform="translate(-23.000000, -57.000000)">
        <g id="Weather" fill="#FAE965">
            <path d="M65.5,85.75 C65.5,93.3437969 59.3437969,99.5 51.75,99.5 C44.1562031,99.5 38,93.3437969 38,85.75 C38,78.1562031 44.1562031,72 51.75,72 C59.3437969,72 65.5,78.1562031 65.5,85.75 Z M50,104.503424 C50,103.673106 50.6657972,103 51.5,103 C52.3284271,103 53,103.667996 53,104.503424 L53,112.996576 C53,113.826894 52.3342028,114.5 51.5,114.5 C50.6715729,114.5 50,113.832004 50,112.996576 L50,104.503424 Z M78.9965758,85.25 C79.8268941,85.25 80.5,85.9157972 80.5,86.75 C80.5,87.5784271 79.8320042,88.25 78.9965758,88.25 L70.5034242,88.25 C69.6731059,88.25 69,87.5842028 69,86.75 C69,85.9215729 69.6679958,85.25 70.5034242,85.25 L78.9965758,85.25 Z M32.9965758,85.25 C33.8268941,85.25 34.5,85.9157972 34.5,86.75 C34.5,87.5784271 33.8320042,88.25 32.9965758,88.25 L24.5034242,88.25 C23.6731059,88.25 23,87.5842028 23,86.75 C23,85.9215729 23.6679958,85.25 24.5034242,85.25 L32.9965758,85.25 Z M33.0981454,71.2194657 C32.5124717,70.6337921 32.5084791,69.68822 33.0983496,69.0983496 C33.684136,68.5125631 34.6296423,68.508322 35.2194657,69.0981454 L38.4018546,72.2805343 C38.9875283,72.8662079 38.9915209,73.81178 38.4016504,74.4016504 C37.815864,74.9874369 36.8703577,74.991678 36.2805343,74.4018546 L33.0981454,71.2194657 Z M64.0981454,100.219466 C63.5124717,99.6337921 63.5084791,98.68822 64.0983496,98.0983496 C64.684136,97.5125631 65.6296423,97.508322 66.2194657,98.0981454 L69.4018546,101.280534 C69.9875283,101.866208 69.9915209,102.81178 69.4016504,103.40165 C68.815864,103.987437 67.8703577,103.991678 67.2805343,103.401855 L64.0981454,100.219466 Z M68.2805343,69.0981454 C68.8662079,68.5124717 69.81178,68.5084791 70.4016504,69.0983496 C70.9874369,69.684136 70.991678,70.6296423 70.4018546,71.2194657 L67.2194657,74.4018546 C66.6337921,74.9875283 65.68822,74.9915209 65.0983496,74.4016504 C64.5125631,73.815864 64.508322,72.8703577 65.0981454,72.2805343 L68.2805343,69.0981454 Z M37.2805343,99.0981454 C37.8662079,98.5124717 38.81178,98.5084791 39.4016504,99.0983496 C39.9874369,99.684136 39.991678,100.629642 39.4018546,101.219466 L36.2194657,104.401855 C35.6337921,104.987528 34.68822,104.991521 34.0983496,104.40165 C33.5125631,103.815864 33.508322,102.870358 34.0981454,102.280534 L37.2805343,99.0981454 Z M50,58.5034242 C50,57.6731059 50.6657972,57 51.5,57 C52.3284271,57 53,57.6679958 53,58.5034242 L53,66.9965758 C53,67.8268941 52.3342028,68.5 51.5,68.5 C50.6715729,68.5 50,67.8320042 50,66.9965758 L50,58.5034242 Z" id="Icon"></path>
        </g>
    </g>
</svg>