<svg id="Layer_1" data-name="Layer 1" xmlns="http://www.w3.org/2000/svg" width="64" height="64" viewBox="0 0 64 64"><defs><style>.cls-1{fill:#666;}</style></defs><title>user_search_2</title><path id="user_search_2" class="cls-1" d="M50,34a10,10,0,0,0-7.74,16.32l-8,8a1,1,0,1,0,1.41,1.41l8-8A10,10,0,1,0,50,34Zm0,18a8,8,0,1,1,8-8A8,8,0,0,1,50,52ZM42.79,32.27a22.89,22.89,0,0,0-10.49-5.64,11,11,0,1,0-10.6,0A23,23,0,0,0,4,49a1,1,0,0,0,2,0A21,21,0,0,1,41.42,33.73,1,1,0,0,0,42.79,32.27ZM18,17a9,9,0,1,1,9,9A9,9,0,0,1,18,17Z"/></svg>